<svg xmlns="http://www.w3.org/2000/svg" viewBox="0 0 18 18" fill="currentColor">
  <path d="M5.875 10.25a1 1 0 1 1 0 2 1 1 0 0 1 0-2M5.125 6.333a1 1 0 1 1 0 2 1 1 0 0 1 0-2M12.125 5.25a1 1 0 1 1 0 2 1 1 0 0 1 0-2M8.375 3.75a1 1 0 1 1 0 2 1 1 0 0 1 0-2"/>
  <path fill-rule="evenodd" d="M9.125.835A8.165 8.165 0 0 1 17.29 9a2.895 2.895 0 0 1-2.894 2.895h-3.298a.7.7 0 0 0-.557 1.123l.752.989c.22.288.338.64.338 1.003 0 1.19-.965 2.155-2.155 2.155h-.351a8.165 8.165 0 1 1 0-16.33m0 1.33a6.835 6.835 0 1 0 0 13.67h.35c.456 0 .826-.37.826-.825a.33.33 0 0 0-.068-.198l-.752-.99a2.03 2.03 0 0 1 1.617-3.257h3.297c.865 0 1.565-.7 1.565-1.565a6.835 6.835 0 0 0-6.835-6.835" clip-rule="evenodd"/>
</svg>
